<mxfile host="app.diagrams.net" agent="Mozilla/5.0 (Macintosh; Intel Mac OS X 10_15_7) AppleWebKit/537.36 (KHTML, like Gecko) Chrome/128.0.0.0 Safari/537.36" version="24.7.17">
  <diagram id="C5RBs43oDa-KdzZeNtuy" name="Page-1">
    <mxGraphModel dx="551" dy="408" grid="1" gridSize="10" guides="1" tooltips="1" connect="1" arrows="1" fold="1" page="1" pageScale="1" pageWidth="827" pageHeight="1169" math="0" shadow="0">
      <root>
        <mxCell id="WIyWlLk6GJQsqaUBKTNV-0" />
        <mxCell id="WIyWlLk6GJQsqaUBKTNV-1" parent="WIyWlLk6GJQsqaUBKTNV-0" />
        <mxCell id="OFMqSZUyq_4KpKpkcE9N-0" value="" style="group" parent="WIyWlLk6GJQsqaUBKTNV-1" vertex="1" connectable="0">
          <mxGeometry x="50" y="110" width="750" height="700" as="geometry" />
        </mxCell>
        <mxCell id="OFMqSZUyq_4KpKpkcE9N-1" style="edgeStyle=orthogonalEdgeStyle;rounded=0;orthogonalLoop=1;jettySize=auto;html=1;entryX=0.175;entryY=0.641;entryDx=0;entryDy=0;entryPerimeter=0;fillColor=#60a917;strokeColor=#2D7600;exitX=1;exitY=0.5;exitDx=0;exitDy=0;" parent="OFMqSZUyq_4KpKpkcE9N-0" source="OFMqSZUyq_4KpKpkcE9N-14" edge="1">
          <mxGeometry relative="1" as="geometry">
            <mxPoint x="260.04999999999995" y="190.00000000000006" as="targetPoint" />
            <mxPoint x="150.00000000000006" y="446.5" as="sourcePoint" />
            <Array as="points">
              <mxPoint x="260" y="435" />
            </Array>
          </mxGeometry>
        </mxCell>
        <mxCell id="OFMqSZUyq_4KpKpkcE9N-2" value="URL" style="edgeStyle=orthogonalEdgeStyle;rounded=0;orthogonalLoop=1;jettySize=auto;html=1;fillColor=#60a917;strokeColor=#2D7600;" parent="OFMqSZUyq_4KpKpkcE9N-0" source="OFMqSZUyq_4KpKpkcE9N-3" target="OFMqSZUyq_4KpKpkcE9N-6" edge="1">
          <mxGeometry relative="1" as="geometry">
            <Array as="points">
              <mxPoint x="314" y="90" />
              <mxPoint x="314" y="90" />
            </Array>
          </mxGeometry>
        </mxCell>
        <mxCell id="OFMqSZUyq_4KpKpkcE9N-3" value="Start" style="rounded=1;whiteSpace=wrap;html=1;strokeColor=none;fillColor=#1ba1e2;fontColor=#ffffff;" parent="OFMqSZUyq_4KpKpkcE9N-0" vertex="1">
          <mxGeometry x="274" width="80" height="40" as="geometry" />
        </mxCell>
        <mxCell id="OFMqSZUyq_4KpKpkcE9N-4" style="edgeStyle=orthogonalEdgeStyle;rounded=0;orthogonalLoop=1;jettySize=auto;html=1;entryX=1;entryY=0.5;entryDx=0;entryDy=0;fillColor=#60a917;strokeColor=#2D7600;" parent="OFMqSZUyq_4KpKpkcE9N-0" source="OFMqSZUyq_4KpKpkcE9N-6" target="OFMqSZUyq_4KpKpkcE9N-8" edge="1">
          <mxGeometry relative="1" as="geometry">
            <mxPoint x="179.99999999999977" y="165" as="targetPoint" />
          </mxGeometry>
        </mxCell>
        <mxCell id="OFMqSZUyq_4KpKpkcE9N-5" style="edgeStyle=orthogonalEdgeStyle;rounded=0;orthogonalLoop=1;jettySize=auto;html=1;entryX=0;entryY=0.5;entryDx=0;entryDy=0;fillColor=#60a917;strokeColor=#2D7600;" parent="OFMqSZUyq_4KpKpkcE9N-0" source="OFMqSZUyq_4KpKpkcE9N-6" target="OFMqSZUyq_4KpKpkcE9N-19" edge="1">
          <mxGeometry relative="1" as="geometry" />
        </mxCell>
        <mxCell id="OFMqSZUyq_4KpKpkcE9N-6" value="&lt;span style=&quot;background-color: rgb(230, 230, 230);&quot;&gt;index.xhtml&lt;br&gt;&lt;/span&gt;&lt;span style=&quot;background: rgb(230, 230, 230); font-family: SFMono-Regular, Menlo, Consolas, &amp;quot;PT Mono&amp;quot;, &amp;quot;Liberation Mono&amp;quot;, Courier, monospace; line-height: normal; border-radius: 4px; font-size: 85%; padding: 0.2em 0.4em;&quot; data-token-index=&quot;0&quot; spellcheck=&quot;false&quot; class=&quot;notion-enable-hover&quot;&gt;Reservationen erfassen&lt;/span&gt;&lt;div&gt;&lt;span style=&quot;font-family: SFMono-Regular, Menlo, Consolas, &amp;quot;PT Mono&amp;quot;, &amp;quot;Liberation Mono&amp;quot;, Courier, monospace; line-height: normal; background-image: initial; background-position: initial; background-size: initial; background-repeat: initial; background-attachment: initial; background-origin: initial; background-clip: initial; border-radius: 4px; font-size: 85%; padding: 0.2em 0.4em; background-color: rgb(230, 230, 230);&quot; data-token-index=&quot;0&quot; spellcheck=&quot;false&quot; class=&quot;notion-enable-hover&quot;&gt;oder&lt;br&gt;Schlüssel eingeben&lt;/span&gt;&lt;/div&gt;" style="rhombus;whiteSpace=wrap;html=1;fillColor=#60a917;fontColor=#333333;strokeColor=none;" parent="OFMqSZUyq_4KpKpkcE9N-0" vertex="1">
          <mxGeometry x="231" y="120" width="166" height="90" as="geometry" />
        </mxCell>
        <mxCell id="OFMqSZUyq_4KpKpkcE9N-7" value="absenden" style="edgeStyle=orthogonalEdgeStyle;rounded=0;orthogonalLoop=1;jettySize=auto;html=1;fillColor=#60a917;strokeColor=#2D7600;" parent="OFMqSZUyq_4KpKpkcE9N-0" source="OFMqSZUyq_4KpKpkcE9N-8" target="OFMqSZUyq_4KpKpkcE9N-13" edge="1">
          <mxGeometry relative="1" as="geometry" />
        </mxCell>
        <mxCell id="OFMqSZUyq_4KpKpkcE9N-8" value="&lt;span style=&quot;font-size: 11px; text-wrap: nowrap;&quot;&gt;Reservation&amp;nbsp;&lt;/span&gt;&lt;span style=&quot;font-size: 11px; text-wrap: nowrap;&quot;&gt;erfassen&lt;br&gt;Formular Ausfüllen&lt;/span&gt;" style="rounded=1;whiteSpace=wrap;html=1;strokeColor=none;fillColor=#60a917;fontColor=#ffffff;" parent="OFMqSZUyq_4KpKpkcE9N-0" vertex="1">
          <mxGeometry x="40" y="138.75" width="130" height="52.5" as="geometry" />
        </mxCell>
        <mxCell id="OFMqSZUyq_4KpKpkcE9N-9" style="edgeStyle=orthogonalEdgeStyle;rounded=0;orthogonalLoop=1;jettySize=auto;html=1;entryX=0;entryY=0.5;entryDx=0;entryDy=0;fillColor=#e51400;strokeColor=#B20000;" parent="OFMqSZUyq_4KpKpkcE9N-0" source="OFMqSZUyq_4KpKpkcE9N-13" target="OFMqSZUyq_4KpKpkcE9N-8" edge="1">
          <mxGeometry relative="1" as="geometry">
            <Array as="points">
              <mxPoint y="300" />
              <mxPoint y="165" />
            </Array>
          </mxGeometry>
        </mxCell>
        <mxCell id="OFMqSZUyq_4KpKpkcE9N-10" value="nicht möglich" style="edgeLabel;html=1;align=center;verticalAlign=middle;resizable=0;points=[];" parent="OFMqSZUyq_4KpKpkcE9N-9" vertex="1" connectable="0">
          <mxGeometry x="0.1081" y="1" relative="1" as="geometry">
            <mxPoint as="offset" />
          </mxGeometry>
        </mxCell>
        <mxCell id="OFMqSZUyq_4KpKpkcE9N-11" value="" style="edgeStyle=orthogonalEdgeStyle;rounded=0;orthogonalLoop=1;jettySize=auto;html=1;fillColor=#60a917;strokeColor=#2D7600;" parent="OFMqSZUyq_4KpKpkcE9N-0" source="OFMqSZUyq_4KpKpkcE9N-13" target="OFMqSZUyq_4KpKpkcE9N-14" edge="1">
          <mxGeometry relative="1" as="geometry" />
        </mxCell>
        <mxCell id="OFMqSZUyq_4KpKpkcE9N-12" value="möglich" style="edgeLabel;html=1;align=center;verticalAlign=middle;resizable=0;points=[];" parent="OFMqSZUyq_4KpKpkcE9N-11" vertex="1" connectable="0">
          <mxGeometry x="-0.0673" y="-1" relative="1" as="geometry">
            <mxPoint as="offset" />
          </mxGeometry>
        </mxCell>
        <mxCell id="OFMqSZUyq_4KpKpkcE9N-13" value="Überprüfung" style="rounded=0;whiteSpace=wrap;html=1;fillColor=#1ba1e2;fontColor=#FFFFFF;strokeColor=none;" parent="OFMqSZUyq_4KpKpkcE9N-0" vertex="1">
          <mxGeometry x="60" y="280" width="90" height="40" as="geometry" />
        </mxCell>
        <mxCell id="OFMqSZUyq_4KpKpkcE9N-14" value="&lt;font color=&quot;#ffffff&quot;&gt;Bestätigung Anzeigen&lt;/font&gt;" style="rounded=0;whiteSpace=wrap;html=1;fillColor=#60a917;fontColor=#ffffff;strokeColor=none;" parent="OFMqSZUyq_4KpKpkcE9N-0" vertex="1">
          <mxGeometry x="60" y="415" width="90" height="40" as="geometry" />
        </mxCell>
        <mxCell id="OFMqSZUyq_4KpKpkcE9N-15" value="Ende" style="rounded=1;whiteSpace=wrap;html=1;strokeColor=none;fillColor=#1ba1e2;fontColor=#ffffff;" parent="OFMqSZUyq_4KpKpkcE9N-0" vertex="1">
          <mxGeometry x="274" y="630" width="80" height="40" as="geometry" />
        </mxCell>
        <mxCell id="OFMqSZUyq_4KpKpkcE9N-16" style="edgeStyle=orthogonalEdgeStyle;rounded=0;orthogonalLoop=1;jettySize=auto;html=1;entryX=0;entryY=0.5;entryDx=0;entryDy=0;fillColor=#60a917;strokeColor=#2D7600;" parent="OFMqSZUyq_4KpKpkcE9N-0" source="OFMqSZUyq_4KpKpkcE9N-14" target="OFMqSZUyq_4KpKpkcE9N-15" edge="1">
          <mxGeometry relative="1" as="geometry">
            <Array as="points">
              <mxPoint x="105" y="650" />
            </Array>
          </mxGeometry>
        </mxCell>
        <mxCell id="OFMqSZUyq_4KpKpkcE9N-17" value="Schlüssel generiert&lt;br&gt;und&lt;br&gt;E-mail senden" style="edgeLabel;html=1;align=center;verticalAlign=middle;resizable=0;points=[];" parent="OFMqSZUyq_4KpKpkcE9N-16" vertex="1" connectable="0">
          <mxGeometry x="-0.4146" y="1" relative="1" as="geometry">
            <mxPoint as="offset" />
          </mxGeometry>
        </mxCell>
        <mxCell id="OFMqSZUyq_4KpKpkcE9N-18" style="edgeStyle=orthogonalEdgeStyle;rounded=0;orthogonalLoop=1;jettySize=auto;html=1;entryX=0.5;entryY=0;entryDx=0;entryDy=0;fillColor=#60a917;strokeColor=#2D7600;" parent="OFMqSZUyq_4KpKpkcE9N-0" source="OFMqSZUyq_4KpKpkcE9N-19" target="OFMqSZUyq_4KpKpkcE9N-26" edge="1">
          <mxGeometry relative="1" as="geometry" />
        </mxCell>
        <mxCell id="OFMqSZUyq_4KpKpkcE9N-19" value="&lt;span style=&quot;font-size: 11px; text-wrap: nowrap;&quot;&gt;Schlüssel eingeben&lt;/span&gt;" style="rounded=1;whiteSpace=wrap;html=1;strokeColor=none;fillColor=#60a917;fontColor=#ffffff;" parent="OFMqSZUyq_4KpKpkcE9N-0" vertex="1">
          <mxGeometry x="470" y="138.75" width="130" height="52.5" as="geometry" />
        </mxCell>
        <mxCell id="OFMqSZUyq_4KpKpkcE9N-20" style="edgeStyle=orthogonalEdgeStyle;rounded=0;orthogonalLoop=1;jettySize=auto;html=1;entryX=1;entryY=0.5;entryDx=0;entryDy=0;fillColor=#e51400;strokeColor=#B20000;exitX=1;exitY=0.25;exitDx=0;exitDy=0;" parent="OFMqSZUyq_4KpKpkcE9N-0" source="OFMqSZUyq_4KpKpkcE9N-26" target="OFMqSZUyq_4KpKpkcE9N-19" edge="1">
          <mxGeometry relative="1" as="geometry">
            <Array as="points">
              <mxPoint x="660" y="290" />
              <mxPoint x="660" y="165" />
            </Array>
          </mxGeometry>
        </mxCell>
        <mxCell id="OFMqSZUyq_4KpKpkcE9N-21" value="ungültiger&lt;br&gt;Schlüssel" style="edgeLabel;html=1;align=center;verticalAlign=middle;resizable=0;points=[];" parent="OFMqSZUyq_4KpKpkcE9N-20" vertex="1" connectable="0">
          <mxGeometry x="0.0533" y="-1" relative="1" as="geometry">
            <mxPoint as="offset" />
          </mxGeometry>
        </mxCell>
        <mxCell id="OFMqSZUyq_4KpKpkcE9N-22" style="edgeStyle=orthogonalEdgeStyle;rounded=0;orthogonalLoop=1;jettySize=auto;html=1;entryX=0.5;entryY=0;entryDx=0;entryDy=0;fillColor=#60a917;strokeColor=#2D7600;" parent="OFMqSZUyq_4KpKpkcE9N-0" source="OFMqSZUyq_4KpKpkcE9N-26" target="OFMqSZUyq_4KpKpkcE9N-29" edge="1">
          <mxGeometry relative="1" as="geometry" />
        </mxCell>
        <mxCell id="OFMqSZUyq_4KpKpkcE9N-23" value="Publik Schlüssel" style="edgeLabel;html=1;align=center;verticalAlign=middle;resizable=0;points=[];" parent="OFMqSZUyq_4KpKpkcE9N-22" vertex="1" connectable="0">
          <mxGeometry x="0.6506" y="1" relative="1" as="geometry">
            <mxPoint x="-1" y="-22" as="offset" />
          </mxGeometry>
        </mxCell>
        <mxCell id="OFMqSZUyq_4KpKpkcE9N-24" style="edgeStyle=orthogonalEdgeStyle;rounded=0;orthogonalLoop=1;jettySize=auto;html=1;entryX=0.515;entryY=0.013;entryDx=0;entryDy=0;fillColor=#60a917;strokeColor=#2D7600;entryPerimeter=0;" parent="OFMqSZUyq_4KpKpkcE9N-0" source="OFMqSZUyq_4KpKpkcE9N-26" target="OFMqSZUyq_4KpKpkcE9N-33" edge="1">
          <mxGeometry relative="1" as="geometry">
            <Array as="points">
              <mxPoint x="633" y="310" />
            </Array>
          </mxGeometry>
        </mxCell>
        <mxCell id="OFMqSZUyq_4KpKpkcE9N-25" value="Privat Schlüssel" style="edgeLabel;html=1;align=center;verticalAlign=middle;resizable=0;points=[];" parent="OFMqSZUyq_4KpKpkcE9N-24" vertex="1" connectable="0">
          <mxGeometry x="0.3087" relative="1" as="geometry">
            <mxPoint as="offset" />
          </mxGeometry>
        </mxCell>
        <mxCell id="OFMqSZUyq_4KpKpkcE9N-26" value="Schlüssel Typ&lt;br&gt;Überprüfung" style="rounded=0;whiteSpace=wrap;html=1;fillColor=#1ba1e2;fontColor=#FFFFFF;strokeColor=none;" parent="OFMqSZUyq_4KpKpkcE9N-0" vertex="1">
          <mxGeometry x="490" y="280" width="90" height="40" as="geometry" />
        </mxCell>
        <mxCell id="OFMqSZUyq_4KpKpkcE9N-27" style="edgeStyle=orthogonalEdgeStyle;rounded=0;orthogonalLoop=1;jettySize=auto;html=1;entryX=0.5;entryY=0;entryDx=0;entryDy=0;fillColor=#60a917;strokeColor=#2D7600;" parent="OFMqSZUyq_4KpKpkcE9N-0" source="OFMqSZUyq_4KpKpkcE9N-29" target="OFMqSZUyq_4KpKpkcE9N-15" edge="1">
          <mxGeometry relative="1" as="geometry">
            <Array as="points">
              <mxPoint x="314" y="450" />
            </Array>
          </mxGeometry>
        </mxCell>
        <mxCell id="OFMqSZUyq_4KpKpkcE9N-28" style="edgeStyle=orthogonalEdgeStyle;rounded=0;orthogonalLoop=1;jettySize=auto;html=1;entryX=0.5;entryY=1;entryDx=0;entryDy=0;fillColor=#60a917;strokeColor=#2D7600;" parent="OFMqSZUyq_4KpKpkcE9N-0" target="OFMqSZUyq_4KpKpkcE9N-6" edge="1">
          <mxGeometry relative="1" as="geometry">
            <mxPoint x="370" y="430" as="sourcePoint" />
            <Array as="points">
              <mxPoint x="364" y="430" />
              <mxPoint x="314" y="430" />
            </Array>
          </mxGeometry>
        </mxCell>
        <mxCell id="OFMqSZUyq_4KpKpkcE9N-29" value="&lt;font color=&quot;#ffffff&quot;&gt;Publik Ansicht&lt;br&gt;Termin einsehen&lt;/font&gt;" style="rounded=0;whiteSpace=wrap;html=1;fillColor=#60a917;fontColor=#ffffff;strokeColor=none;" parent="OFMqSZUyq_4KpKpkcE9N-0" vertex="1">
          <mxGeometry x="364" y="415" width="106" height="45" as="geometry" />
        </mxCell>
        <mxCell id="OFMqSZUyq_4KpKpkcE9N-30" style="edgeStyle=orthogonalEdgeStyle;rounded=0;orthogonalLoop=1;jettySize=auto;html=1;exitX=0.5;exitY=1;exitDx=0;exitDy=0;" parent="OFMqSZUyq_4KpKpkcE9N-0" source="OFMqSZUyq_4KpKpkcE9N-29" target="OFMqSZUyq_4KpKpkcE9N-29" edge="1">
          <mxGeometry relative="1" as="geometry" />
        </mxCell>
        <mxCell id="OFMqSZUyq_4KpKpkcE9N-31" style="edgeStyle=orthogonalEdgeStyle;rounded=0;orthogonalLoop=1;jettySize=auto;html=1;entryX=0.5;entryY=0;entryDx=0;entryDy=0;fillColor=#60a917;strokeColor=#2D7600;" parent="OFMqSZUyq_4KpKpkcE9N-0" source="OFMqSZUyq_4KpKpkcE9N-33" target="OFMqSZUyq_4KpKpkcE9N-35" edge="1">
          <mxGeometry relative="1" as="geometry">
            <Array as="points">
              <mxPoint x="620" y="495" />
              <mxPoint x="550" y="495" />
            </Array>
          </mxGeometry>
        </mxCell>
        <mxCell id="OFMqSZUyq_4KpKpkcE9N-32" style="edgeStyle=orthogonalEdgeStyle;rounded=0;orthogonalLoop=1;jettySize=auto;html=1;fillColor=#60a917;strokeColor=#2D7600;" parent="OFMqSZUyq_4KpKpkcE9N-0" source="OFMqSZUyq_4KpKpkcE9N-33" target="OFMqSZUyq_4KpKpkcE9N-38" edge="1">
          <mxGeometry relative="1" as="geometry">
            <Array as="points">
              <mxPoint x="640" y="495" />
              <mxPoint x="690" y="495" />
            </Array>
          </mxGeometry>
        </mxCell>
        <mxCell id="OFMqSZUyq_4KpKpkcE9N-33" value="&lt;font color=&quot;#ffffff&quot;&gt;Privat Ansicht&lt;br&gt;Termin bearbeiten&lt;/font&gt;" style="rounded=0;whiteSpace=wrap;html=1;fillColor=#60a917;fontColor=#ffffff;strokeColor=none;" parent="OFMqSZUyq_4KpKpkcE9N-0" vertex="1">
          <mxGeometry x="560" y="415" width="140" height="45" as="geometry" />
        </mxCell>
        <mxCell id="OFMqSZUyq_4KpKpkcE9N-34" style="edgeStyle=orthogonalEdgeStyle;rounded=0;orthogonalLoop=1;jettySize=auto;html=1;exitX=0.5;exitY=1;exitDx=0;exitDy=0;fillColor=#60a917;strokeColor=#2D7600;" parent="OFMqSZUyq_4KpKpkcE9N-0" source="OFMqSZUyq_4KpKpkcE9N-35" target="OFMqSZUyq_4KpKpkcE9N-13" edge="1">
          <mxGeometry relative="1" as="geometry">
            <Array as="points">
              <mxPoint x="547" y="700" />
              <mxPoint y="700" />
              <mxPoint y="310" />
            </Array>
          </mxGeometry>
        </mxCell>
        <mxCell id="OFMqSZUyq_4KpKpkcE9N-35" value="Änderung" style="rounded=0;whiteSpace=wrap;html=1;fillColor=#60a917;fontColor=#ffffff;strokeColor=none;" parent="OFMqSZUyq_4KpKpkcE9N-0" vertex="1">
          <mxGeometry x="510" y="530" width="80" height="40" as="geometry" />
        </mxCell>
        <mxCell id="OFMqSZUyq_4KpKpkcE9N-36" style="edgeStyle=orthogonalEdgeStyle;rounded=0;orthogonalLoop=1;jettySize=auto;html=1;entryX=1;entryY=0.5;entryDx=0;entryDy=0;fillColor=#60a917;strokeColor=#2D7600;" parent="OFMqSZUyq_4KpKpkcE9N-0" source="OFMqSZUyq_4KpKpkcE9N-38" target="OFMqSZUyq_4KpKpkcE9N-33" edge="1">
          <mxGeometry relative="1" as="geometry">
            <Array as="points">
              <mxPoint x="750" y="550" />
              <mxPoint x="750" y="438" />
            </Array>
          </mxGeometry>
        </mxCell>
        <mxCell id="OFMqSZUyq_4KpKpkcE9N-37" style="edgeStyle=orthogonalEdgeStyle;rounded=0;orthogonalLoop=1;jettySize=auto;html=1;fillColor=#60a917;strokeColor=#2D7600;" parent="OFMqSZUyq_4KpKpkcE9N-0" source="OFMqSZUyq_4KpKpkcE9N-38" edge="1">
          <mxGeometry relative="1" as="geometry">
            <Array as="points">
              <mxPoint x="690" y="650" />
              <mxPoint x="354" y="650" />
            </Array>
            <mxPoint x="354" y="650" as="targetPoint" />
          </mxGeometry>
        </mxCell>
        <mxCell id="OFMqSZUyq_4KpKpkcE9N-38" value="&lt;font color=&quot;#ffffff&quot;&gt;Löschen&lt;/font&gt;" style="rounded=0;whiteSpace=wrap;html=1;fillColor=#fa6800;fontColor=#000000;strokeColor=none;" parent="OFMqSZUyq_4KpKpkcE9N-0" vertex="1">
          <mxGeometry x="650" y="530" width="80" height="40" as="geometry" />
        </mxCell>
      </root>
    </mxGraphModel>
  </diagram>
</mxfile>
